<svg xmlns="http://www.w3.org/2000/svg" viewBox="0 0 300 100" preserveAspectRatio="xMidYMid slice"><defs>
<filter id="g6" x="0" y="0" width="100%" height="100%"><feTurbulence type="fractalNoise" baseFrequency="0.85" numOctaves="3" seed="6" stitchTiles="stitch" result="n"/><feColorMatrix in="n" type="matrix" values="0 0 0 0 0  0 0 0 0 0  0 0 0 0 0  0 0 0 0.12 0" result="a"/><feComposite in="a" in2="SourceGraphic" operator="over"/></filter>
<filter id="soft6"><feGaussianBlur stdDeviation="6"/></filter>
<pattern id="dots6" width="6" height="6" patternUnits="userSpaceOnUse"><circle cx="3" cy="3" r="1.6" fill="currentColor"/></pattern>
<pattern id="hatch6" width="5" height="5" patternUnits="userSpaceOnUse" patternTransform="rotate(45)"><rect width="2" height="5" fill="currentColor"/></pattern>
</defs><rect width="300" height="100" fill="#1b2a6b"/><defs><linearGradient id="b6" x1="0" y1="0" x2="1" y2="0"><stop offset="0" stop-color="#1b2a6b"/><stop offset="0.5" stop-color="#2f6f4f"/><stop offset="1" stop-color="#0f2a3a"/></linearGradient><radialGradient id="s6" cx="0.35" cy="0.35" r="0.7"><stop offset="0" stop-color="#e9eef7"/><stop offset="1" stop-color="#4c5db8"/></radialGradient></defs>
<rect width="300" height="100" fill="url(#b6)"/><rect x="0" y="0" width="300" height="100" fill="url(#hatch6)" style="color:#0b1c2e" opacity="0.35"/><path d="M0 10 C 110 14, 200 41, 300 50" fill="none" stroke="#f2c94c" stroke-width="1.8" opacity="0.9"/><path d="M0 23 C 110 25, 200 44, 300 50" fill="none" stroke="#f26b3a" stroke-width="1.8" opacity="0.9"/><path d="M0 36 C 110 36, 200 47, 300 50" fill="none" stroke="#f2c94c" stroke-width="1.8" opacity="0.9"/><path d="M0 49 C 110 47, 200 50, 300 50" fill="none" stroke="#f26b3a" stroke-width="1.8" opacity="0.9"/><path d="M0 62 C 110 58, 200 53, 300 50" fill="none" stroke="#f2c94c" stroke-width="1.8" opacity="0.9"/><path d="M0 75 C 110 69, 200 56, 300 50" fill="none" stroke="#f26b3a" stroke-width="1.8" opacity="0.9"/><path d="M0 88 C 110 80, 200 59, 300 50" fill="none" stroke="#f2c94c" stroke-width="1.8" opacity="0.9"/><rect x="210" y="0" width="90" height="100" fill="url(#dots6)" style="color:#7bc67e" opacity="0.7"/><circle cx="60" cy="28" r="13" fill="url(#s6)"/><circle cx="90" cy="74" r="8" fill="url(#s6)"/><g filter="url(#g6)"><rect width="300" height="100" fill="#fff" opacity="0"/></g></svg>